<?xml version="1.0" encoding="UTF-8"?>
<svg id="Layer_1" xmlns="http://www.w3.org/2000/svg" viewBox="0 0 259.7 111.93">
  <defs>
    <style>
      .cls-1 {
        fill: none;
        stroke: #5e8048;
        stroke-linecap: round;
        stroke-miterlimit: 10;
        stroke-width: 3.67px;
      }

      .cls-2 {
        fill: #5e8048;
      }
    </style>
  </defs>
  <g>
    <path class="cls-2" d="M47.46,36.91c0-6.31-5.77-8.7-11.75-8.3v-.07c10.89-3.65,11.48-12.88,11.48-14.14C47.19,5.04,37.97,0,28.48,0,18.52,0,8.36,5.58,8.36,17.39c0,2.85.73,5.44,1.99,7.1l.46-.27c-.73-1.39-1.06-3.05-1.06-4.85,0-5.91,4.25-12.61,15.27-12.61,8.96,0,14.07,5.44,14.07,11.42,0,4.58-3.12,9.89-9.16,10.75l-.07.53c3.19,0,8.23,1.46,8.23,6.64,0,7.77-8.36,12.15-17.19,7.57.86-1,1.53-2.26,1.86-3.78l4.85-22.37c.4-1.79,1.46-3.05,2.85-3.05.86,0,2.12.53,2.32,1.99l.46-.27c.07-3.19-3.05-4.51-5.64-4.51-3.72,0-8.3,2.19-9.36,6.97l-4.78,21.84c-1.13,4.98-4.91,6.37-8.3,5.11.53-2.85.8-7.43-2.59-7.43-1.73,0-2.59,1.59-2.59,2.85v.07c0,6.97,14.54,9.16,20.51,3.05,3.85,2.65,8.1,3.78,12.08,3.78,6.84,0,14.87-3.85,14.87-11.02Z"/>
    <path class="cls-2" d="M60.14,18.19c1.73,0,3.06-.44,4.02-1.33.95-.88,1.43-1.99,1.43-3.32s-.48-2.37-1.43-3.25c-.95-.88-2.29-1.33-4.02-1.33s-3.06.44-4.02,1.33c-.95.89-1.43,1.97-1.43,3.25s.48,2.43,1.43,3.32c.95.89,2.29,1.33,4.02,1.33Z"/>
    <path class="cls-2" d="M54.69,25.35c.31.4.46.89.46,1.46v11.35c0,1.28.2,2.52.6,3.72s1.04,2.22,1.92,3.09c.88.86,2,1.56,3.35,2.09,1.35.53,2.95.8,4.81.8,1.24,0,2.26-.1,3.05-.3.8-.2,1.48-.48,2.06-.83.57-.35,1.05-.75,1.43-1.19.38-.44.74-.91,1.1-1.39l-.66-.46c-.66.97-1.31,1.65-1.92,2.02-.62.38-1.33.56-2.12.56-1.11,0-1.96-.33-2.56-1-.6-.66-.9-1.79-.9-3.39v-19.18c0-.4-.08-.7-.23-.9-.16-.2-.43-.3-.83-.3h-.53c-.53,0-1.23.12-2.09.36-.86.24-1.9.52-3.12.83-1.22.31-2.58.6-4.08.86-1.5.27-3.14.4-4.91.4v.8h3.72c.66,0,1.15.2,1.46.6Z"/>
    <path class="cls-2" d="M77.96,35.74c1.13.77,2.37,1.46,3.72,2.06,1.35.6,2.59,1.17,3.72,1.73,1.13.55,2.07,1.14,2.82,1.76.75.62,1.13,1.35,1.13,2.19s-.42,1.52-1.26,2.02c-.84.51-1.95.76-3.32.76-1.02,0-1.95-.15-2.79-.46-.84-.31-1.75-.77-2.72-1.39l-.53.6c.44.35.93.7,1.46,1.03.53.33,1.14.64,1.83.93.69.29,1.47.51,2.36.66.88.15,1.92.23,3.12.23,1.46,0,2.81-.14,4.05-.43,1.24-.29,2.3-.72,3.19-1.29.88-.57,1.59-1.32,2.12-2.22.53-.91.8-1.98.8-3.22,0-1.59-.38-2.94-1.13-4.05-.75-1.11-1.72-2.07-2.89-2.89-1.17-.82-2.42-1.53-3.75-2.12-1.33-.6-2.57-1.17-3.72-1.73-1.15-.55-2.1-1.14-2.85-1.76-.75-.62-1.13-1.33-1.13-2.12,0-.97.54-1.87,1.63-2.69,1.08-.82,2.78-1.23,5.08-1.23s4.05.42,5.11,1.26c1.06.84,1.59,1.81,1.59,2.92,0,.84-.31,1.65-.93,2.42-.62.77-1.42,1.29-2.39,1.56l.2.8c2.88-.09,5.2-.5,6.97-1.23,1.77-.73,2.65-1.8,2.65-3.22,0-.75-.23-1.45-.7-2.09-.46-.64-1.21-1.21-2.22-1.69-1.02-.49-2.32-.86-3.92-1.13-1.59-.27-3.5-.4-5.71-.4s-4.4.14-6.31.43c-1.9.29-3.54.74-4.91,1.36-1.37.62-2.45,1.44-3.22,2.46-.77,1.02-1.16,2.24-1.16,3.65,0,1.5.39,2.78,1.16,3.82.77,1.04,1.73,1.95,2.85,2.72Z"/>
    <path class="cls-2" d="M111.18,32.52v5.64c0,1.28.2,2.52.6,3.72.4,1.19,1.04,2.22,1.92,3.09.88.86,2,1.56,3.35,2.09,1.35.53,2.98.8,4.88.8,1.19,0,2.19-.1,2.99-.3.8-.2,1.48-.48,2.06-.83.57-.35,1.06-.75,1.46-1.19.4-.44.75-.91,1.06-1.39l-.66-.46c-.62.97-1.25,1.65-1.89,2.02-.64.38-1.36.56-2.16.56-1.11,0-1.96-.33-2.56-1-.6-.66-.9-1.79-.9-3.39v-19.12h7.97v-.8h-7.97v-12.15h-1c0,2.17-.33,3.87-1,5.11-.66,1.24-1.47,2.16-2.42,2.75-.95.6-1.96.97-3.02,1.13-1.06.16-1.97.23-2.72.23v2.92h-4.85v.8h4.85v9.76Z"/>
    <path class="cls-2" d="M139.06,25.35c.31.4.46.89.46,1.46v17.13c0,.75-.21,1.35-.63,1.79-.42.44-1.18.66-2.29.66h-2.52v.8h21.04v-.8h-2.52c-1.11,0-1.87-.22-2.29-.66-.42-.44-.63-1.04-.63-1.79v-7.3c0-2.17.19-4.04.56-5.61.38-1.57.88-2.88,1.53-3.92.64-1.04,1.38-1.83,2.22-2.36.84-.53,1.7-.8,2.59-.8,1.02,0,1.88.35,2.59,1.06.71.71,1.06,1.97,1.06,3.78s-.39,3.12-1.16,3.92-1.8,1.19-3.09,1.19v.8c2.61,0,4.79-.17,6.54-.5,1.75-.33,3.15-.79,4.21-1.36,1.06-.57,1.81-1.27,2.26-2.09.44-.82.66-1.74.66-2.75,0-1.95-.73-3.55-2.19-4.81-1.46-1.26-3.7-1.89-6.7-1.89s-5.5.8-7.33,2.39c-1.84,1.59-3.09,3.92-3.75,6.97v-7.97c0-.4-.08-.7-.23-.9-.16-.2-.43-.3-.83-.3h-.53c-.53,0-1.23.12-2.09.36-.86.24-1.9.52-3.12.83-1.22.31-2.58.6-4.08.86s-3.14.4-4.91.4v.8h3.72c.66,0,1.15.2,1.46.6Z"/>
    <path class="cls-2" d="M179.98,44.54c1.57,1.11,3.48,1.94,5.74,2.49s4.8.83,7.63.83,5.39-.28,7.67-.83,4.19-1.38,5.74-2.49c1.55-1.11,2.74-2.5,3.58-4.18.84-1.68,1.26-3.61,1.26-5.77s-.42-4.09-1.26-5.77c-.84-1.68-2.04-3.08-3.58-4.18-1.55-1.11-3.46-1.94-5.74-2.49-2.28-.55-4.83-.83-7.67-.83s-5.38.28-7.63.83c-2.26.55-4.17,1.38-5.74,2.49-1.57,1.11-2.78,2.5-3.62,4.18-.84,1.68-1.26,3.61-1.26,5.77s.42,4.09,1.26,5.77c.84,1.68,2.05,3.08,3.62,4.18ZM186.32,29.21c.35-1.55.86-2.83,1.53-3.85.66-1.02,1.46-1.78,2.39-2.29.93-.51,1.97-.76,3.12-.76s2.2.26,3.15.76c.95.51,1.76,1.27,2.42,2.29.66,1.02,1.17,2.3,1.53,3.85.35,1.55.53,3.34.53,5.38s-.18,3.83-.53,5.38c-.36,1.55-.86,2.83-1.53,3.85-.66,1.02-1.47,1.78-2.42,2.29-.95.51-2,.76-3.15.76s-2.19-.25-3.12-.76c-.93-.51-1.73-1.27-2.39-2.29-.66-1.02-1.17-2.3-1.53-3.85-.35-1.55-.53-3.34-.53-5.38s.18-3.83.53-5.38Z"/>
    <path class="cls-2" d="M53.07,81.46l-.2.53c9.89,3.92,23.76-3.45,23.76-16.26,0-8.63-7.37-12.41-14.34-12.41-18.85,0-29.4,13.67-29.4,27.01,0,10.16,5.97,20.91,19.71,20.91,7.63,0,14.4-4.38,16.99-13.08l-.46-.13c-2.32,5.44-6.31,8.3-11.35,8.3-10.09,0-14.6-8.1-14.6-17.12,0-11.48,7.23-24.49,19.32-24.49,6.37,0,10.09,5.38,10.09,11.15,0,8.96-8.16,18.12-19.51,15.6Z"/>
    <path class="cls-2" d="M90.71,75.09c-8.7,0-16.73,6.17-16.73,14.54,0,6.44,5.04,11.42,13.47,11.42s16.79-6.11,16.79-14.54c0-6.44-5.11-11.42-13.54-11.42ZM87.72,99.05c-3.19,0-4.65-3.32-4.65-7.83s1.73-14.14,7.37-14.14c3.25,0,4.65,3.32,4.65,7.77,0,4.71-1.59,14.21-7.37,14.21Z"/>
    <path class="cls-2" d="M132.06,54.58c.73,0,1.19.6,1.06,1.33l-3.98,22.57c-2.39-2.39-5.11-3.38-7.83-3.38-6.77,0-12.74,5.77-12.74,13.34,0,6.31,3.52,12.61,9.96,12.61,2.19,0,4.65-.6,7.23-2.92l.27-1.46c-5.58,4.38-7.96-2.19-7.96-6.64,0-5.77,3.58-13.61,10.82-9.96l-2.26,12.74c-1.66,9.62,9.36,10.69,12.94,3.92l-.33-.53c-2.72,2.46-4.12.53-3.78-1.19l6.84-39.1c.13-.73.86-1.33,1.59-1.33l.07-.53h-11.81l-.07.53Z"/>
    <path class="cls-2" d="M157.22,96.73l-.33-.53c-2.72,2.46-4.12.53-3.78-1.19l3.12-17.52c.13-.73.8-1.33,1.53-1.33l.07-.53h-11.81l-.07.53c.73,0,1.26.6,1.13,1.33l-2.79,15.33c-1.66,9.62,9.36,10.69,12.94,3.92Z"/>
    <path class="cls-2" d="M149.25,67.39c0,2.19,1.86,4.12,4.12,4.12,2.26-.07,4.12-1.86,4.12-4.18,0-2.19-1.79-4.12-4.12-4.12-2.19.07-4.12,1.86-4.12,4.18Z"/>
    <path class="cls-2" d="M182.44,58.03c1.19,0,2.99.73,3.25,2.59l.46-.27c.07-4.25-4.05-5.97-7.37-5.97-4.91,0-9.16,3.52-9.96,7.83l-2.39,13.41c-1.53,0-4.38.2-4.78,2.79l.33.53c.86-.53,2.79-.53,3.92-.53l-4.51,25.69c-.53,2.92-2.32,4.18-4.45,4.18-1.2,0-2.99-.73-3.25-2.59l-.46.26c-.07,4.25,4.05,5.97,7.37,5.97,4.91,0,9.16-3.52,9.96-7.83l4.51-25.69c1.59-.07,3.98-.53,4.31-2.79l-.33-.53c-.73.53-2.26.53-3.45.53l2.39-13.41c.53-2.92,2.32-4.18,4.45-4.18Z"/>
    <path class="cls-2" d="M182.9,76.15c.73,0,1.26.6,1.13,1.33l-2.79,15.33c-1.66,9.62,9.36,10.69,12.94,3.92l-.33-.53c-2.72,2.46-4.12.53-3.78-1.19l3.12-17.52c.13-.73.8-1.33,1.53-1.33l.07-.53h-11.81l-.07.53Z"/>
    <path class="cls-2" d="M190.34,63.21c-2.19.07-4.12,1.86-4.12,4.18,0,2.19,1.86,4.12,4.12,4.12,2.26-.07,4.12-1.86,4.12-4.18,0-2.19-1.79-4.12-4.12-4.12Z"/>
    <path class="cls-2" d="M198.43,88.76c0,7.96,7.43,12.28,13.94,12.28,5.18,0,9.03-2.46,11.95-7.17l-.4-.4c-2.59,3.25-5.51,4.38-8.03,4.38-4.31,0-7.5-3.98-7.5-10.16,0-5.31,3.52-10.55,8.7-10.55,4.71,0,6.7,3.12,7.1,6.64l.53.27.93-5.44c-2.46-2.12-6.11-3.52-10.49-3.52-8.96,0-16.73,5.64-16.73,13.67Z"/>
    <path class="cls-2" d="M259.37,96.19c-2.72,2.46-4.12.53-3.78-1.19l1.59-9.16c2.46-14.14-19.45-13.21-19.78-3.98h.46c2.19-6.04,11.48-3.58,10.22,3.58-5.71-5.71-20.11-2.79-20.11,6.84s13.34,10.16,17.66,6.77l.4-1.99c-3.52,2.46-7.9,0-7.9-5.44s5.31-8.1,9.56-3.92l-.93,5.11c-1.66,9.62,9.36,10.69,12.94,3.92l-.33-.53Z"/>
  </g>
  <polyline class="cls-1" points="21.71 92.78 15.74 79.57 21.71 66.35"/>
  <polyline class="cls-1" points="222.67 47.46 228.63 34.25 222.67 21.04"/>
</svg>