<?xml version="1.0" encoding="UTF-8"?>
<svg id="Layer_1" xmlns="http://www.w3.org/2000/svg" viewBox="0 0 118.92 118.92">
  <defs>
    <style>
      .cls-1 {
        fill: #e1f1e2;
      }

      .cls-2 {
        fill: #5e8048;
      }
    </style>
  </defs>
  <rect class="cls-1" x="0" y="0" width="118.92" height="118.92" rx="59.46" ry="59.46"/>
  <g>
    <path class="cls-2" d="M57.6,70.63c0-6.31-5.77-8.7-11.75-8.3v-.07c10.89-3.65,11.48-12.88,11.48-14.14,0-9.36-9.23-14.4-18.72-14.4-9.96,0-20.11,5.58-20.11,17.39,0,2.85.73,5.44,1.99,7.1l.46-.27c-.73-1.39-1.06-3.05-1.06-4.85,0-5.91,4.25-12.61,15.27-12.61,8.96,0,14.07,5.44,14.07,11.42,0,4.58-3.12,9.89-9.16,10.75l-.07.53c3.19,0,8.23,1.46,8.23,6.64,0,7.77-8.36,12.15-17.19,7.57.86-1,1.53-2.26,1.86-3.78l4.85-22.37c.4-1.79,1.46-3.05,2.85-3.05.86,0,2.12.53,2.32,1.99l.46-.27c.07-3.19-3.05-4.51-5.64-4.51-3.72,0-8.3,2.19-9.36,6.97l-4.78,21.84c-1.13,4.98-4.91,6.37-8.3,5.11.53-2.85.8-7.43-2.59-7.43-1.73,0-2.59,1.59-2.59,2.85v.07c0,6.97,14.54,9.16,20.51,3.05,3.85,2.65,8.1,3.78,12.08,3.78,6.84,0,14.87-3.85,14.87-11.02Z"/>
    <path class="cls-2" d="M81.04,61.87l-.2.53c9.89,3.92,23.76-3.45,23.76-16.26,0-8.63-7.37-12.41-14.34-12.41-18.85,0-29.4,13.67-29.4,27.01,0,10.16,5.97,20.91,19.71,20.91,7.63,0,14.4-4.38,16.99-13.08l-.46-.13c-2.32,5.44-6.31,8.3-11.35,8.3-10.09,0-14.6-8.1-14.6-17.12,0-11.48,7.23-24.49,19.32-24.49,6.37,0,10.09,5.38,10.09,11.15,0,8.96-8.16,18.12-19.51,15.6Z"/>
  </g>
</svg>