<?xml version="1.0" encoding="UTF-8"?>
<svg id="Layer_1" xmlns="http://www.w3.org/2000/svg" version="1.1" viewBox="0 0 670.4 177.4">
  <!-- Generator: Adobe Illustrator 29.7.1, SVG Export Plug-In . SVG Version: 2.1.1 Build 8)  -->
  <defs>
    <style>
      .st0 {
        fill: #588157;
      }

      .st1 {
        fill: #335242;
      }
    </style>
  </defs>
  <g>
    <path class="st1" d="M18.2,143.8c0,3.9,1.9,5.4,4.6,6.6,1.9.9,3.6,1.6,3.6,3.3s-1.7,2.7-4.3,2.7-7.6-.2-10.3-.2-6.3.2-8.2.2-3.2-.9-3.2-2.2c0-2.7,3.9-2.6,4.5-7.2.4-2.3.5-11.8.5-19.7s0-13.2-.2-15c-.5-6.4-4.5-6.1-4.5-9.2s.7-2.4,2.9-2.4c4.1,0,5.5.2,10.2.2s9.3-.3,14.4-.3c11.7,0,19.4,6.6,19.4,16.7s-6.1,18-19.7,18-6-.6-7.7-.6-1.9.8-1.9,3.3v5.9ZM23.2,107.8c-4.3,0-5.1.5-5.1,5.5v8.3c0,5.4,2.2,6.4,6.6,6.4s8.8-3.8,8.8-10-4.2-10.2-10.3-10.2Z"/>
    <path class="st1" d="M64.6,138.1c-.8,0-1.1.2-1.1.8,0,3,2.9,8.6,10.4,8.6s9.2-2.8,11.3-5.5c.5-.5,1.1-.9,1.6-.9.7,0,1.2.7,1.2,2.3,0,5.3-6.3,13.6-17.8,13.6s-20.2-8.5-20.2-20.5,8.5-22.4,21.3-22.4,16,8.2,16,14.7-1.4,4.3-3.5,5.4c-4.7,2.6-14.3,3.7-19.3,3.9ZM70.2,120.3c-4.8,0-8.2,4.9-8.2,10s.5,2.4,1.6,2.4c2.6,0,9.1-1.1,11.7-3.3.7-.7,1.1-1.4,1.1-2.4,0-3.8-2.6-6.6-6.1-6.6Z"/>
    <path class="st1" d="M115.5,131.2c.5-.4,1-1.2,1-3.9,0-4.5-2-7.9-6.2-7.9s-5.5,2.8-6.5,6.8c-.6,2.2-1.5,3.8-4.2,3.8s-5.4-2-5.4-5.9,5.9-10.1,16.3-10.1,18,5,18,16.3-.4,10.2-.4,14.4.5,3.4,2.4,3.4,1.3-.3,1.9-.3.8.6.8,1.5c0,4.3-3.8,7.5-8.5,7.5s-6.1-1.4-7.4-4c-.2-.4-.4-.7-.7-.7s-.7.4-1,.8c-2.6,2.4-6.8,4.3-11.1,4.3-6.9,0-12.2-3.5-12.2-10.2s4.5-10.4,11.6-12.8c5.1-1.6,10.6-2,11.8-2.8ZM115.8,137.3c-2.4,0-4.5.3-6.4,1-3.5,1.2-5.4,3.7-5.4,6.4s2,4.6,4.9,4.6c4.8,0,7.6-3.7,7.6-8.7s-.3-3.3-.7-3.3Z"/>
    <path class="st1" d="M154.3,150.9c1,1,2.5,1.3,2.5,3s-.8,2.4-3.2,2.4-5-.2-7.2-.2-5,.2-7.9.2-2.6-1-2.6-2.2c0-1.7,1.5-2.6,2.3-3.4,2-2.1,2.3-4.2,2.3-6.3v-35.4c0-2-1.4-3.1-2.6-3.7-.9-.5-1.7-1-1.7-2.1,0-2,2.5-2.3,5.6-3.6,4-1.6,6.4-3.2,8.2-3.2s2.6.8,2.6,2.7c0,4.3-.6,11.1-.6,30.1s.3,3.5.7,3.5c1.4,0,10.6-7.4,10.6-10.6s-2.9-3.3-2.9-5.1,1.4-2.4,2.7-2.4c2.4,0,4.8.2,7.3.2s4.7-.3,7-.3,3.2.2,3.2,2.4-2.2,2.8-4.3,4.2c-3.2,2-8.4,6.3-13.1,10-.4.3-.5.4-.5.7s.2.4.6.6c10.9,4.2,11.7,14,17.4,18.2.4.3,2.5,1.5,2.5,3.4s-.3,2.3-2.2,2.3-5.3-.2-7.8-.2-5.7.3-7.3.3-3-.9-3-2.4,1.1-2,1.1-3.4c0-2.1-1.5-4.8-3.5-7.2-2.5-3-5.3-4.3-6.4-4.3-1.9,0-2.2,1.5-2.2,4.2,0,4.2.9,5.9,2.5,7.5Z"/>
    <path class="st1" d="M187.6,124.2c0-1.6,3.8-3.6,3.8-7.5s-5.2-4.4-5.2-9.9,3.3-7.3,6.7-7.3,7.5,2.6,7.5,8.7c0,9.5-7,17.5-11.2,17.5s-1.7-.7-1.7-1.5Z"/>
    <path class="st1" d="M232.3,117.2c1.8,1.9,2.4,4.2,2.4,7.4s-1.1,3.5-2.5,3.5-2.4-1.3-3.6-2.7c-2-2.4-4.8-5.5-9.4-5.5s-5,1.8-5,4.1c0,3.3,3.3,4.1,9.3,6.3,6.5,2.2,13.1,5.1,13.1,13.8s-7.1,13.3-17.2,13.3-11.5-1.3-14.4-4.7c-1.3-1.3-2.2-4.1-2.2-7.6s.9-3.5,2.6-3.5,1.7.9,2.6,2c2.2,2.7,5.4,7,11.5,7s5-1.7,5-4.3c0-3.7-4.6-4.6-10.4-7.1-4.9-2.2-10.4-4.6-10.4-12.1s7.6-12.9,16.3-12.9,10,.8,12.4,3.2Z"/>
    <path class="st1" d="M303,137.9c-2.6,6.8-4.8,13-6,15.5-1,1.8-2.5,3.2-4.6,3.2s-2-1-2.5-2.1c-1.1-2.4-9.3-23-12.6-30.7-.5-1.2-.9-1.8-1.2-1.8s-.5.5-.6,1.4c-.2,1.5-.5,13.6-.5,15.9,0,4.2.4,7.9,1.1,9.3,1.5,2.9,3.7,3,3.7,5.4s-.8,2.4-2.9,2.4-4.2-.2-5.7-.2-4,.2-6.7.2-2.8-.9-2.8-2.4c0-3,4-2.4,4.8-8.5.9-6.8,1.5-20.9,1.5-27.2s0-4.5-.2-6c-.6-6.4-4.5-6.1-4.5-9.2s.7-2.4,2.8-2.4,4.8.2,6.8.2c4.7,0,6.1.2,7.5,1.1,1.5.9,2.9,3.1,3.7,4.6,1.3,2.3,9.1,21.1,11.5,26.7.2.4.4.7.7.7s.4-.1.7-.7c.7-1.8,7.8-20,10.9-26.9,1.1-2.2,2.1-3.6,3.3-4.4,1.3-.8,3.5-1.1,7.7-1.1s4-.2,5.5-.2,2.7,1.1,2.7,2.4c0,3-3.7,2.8-4.5,9-.2,1.7-.2,4.2-.2,5.8,0,8.6.9,22.3,1.7,27.4.9,6.4,4.8,5.6,4.8,8.7s-.9,2.4-2.9,2.4-6.5-.2-8.3-.2c-2.8,0-5.5.2-8.1.2s-3.2-.9-3.2-2.2c0-2.7,3.7-2.6,4.6-7.4.1-.7.2-1.8.2-3.3,0-3.7-.3-12.6-.9-19.8-.1-1-.4-1.4-.5-1.4-.7,0-2.6,4.4-6.8,15.6Z"/>
    <path class="st1" d="M356,131.2c.5-.4,1-1.2,1-3.9,0-4.5-2-7.9-6.2-7.9s-5.5,2.8-6.5,6.8c-.6,2.2-1.5,3.8-4.2,3.8s-5.4-2-5.4-5.9,5.9-10.1,16.3-10.1,18,5,18,16.3-.4,10.2-.4,14.4.5,3.4,2.4,3.4,1.3-.3,1.9-.3.8.6.8,1.5c0,4.3-3.8,7.5-8.5,7.5s-6.1-1.4-7.4-4c-.2-.4-.4-.7-.7-.7s-.7.4-1,.8c-2.6,2.4-6.8,4.3-11.1,4.3-6.9,0-12.2-3.5-12.2-10.2s4.5-10.4,11.6-12.8c5.1-1.6,10.6-2,11.8-2.8ZM356.4,137.3c-2.4,0-4.5.3-6.4,1-3.5,1.2-5.4,3.7-5.4,6.4s2,4.6,4.9,4.6c4.8,0,7.6-3.7,7.6-8.7s-.3-3.3-.7-3.3Z"/>
    <path class="st1" d="M408.9,115.7c6.1,0,6.9-1.6,8.7-1.6s1.5.8,1.5,2.2-.3,3-.8,4.2c-.4.9-1.2,2.7-3,2.7s-3.5-.6-4.2-.6-.4.2-.4.4c0,.6,1.7,2.4,1.7,5.5,0,9-7.5,14.2-17.1,14.2s-3.3-.2-4.4-.2c-2.1,0-4.3,1.2-4.3,3.3s1.8,3.1,4.8,3.1,8.5-1.2,13.5-1.2c7.6,0,12.8,3,12.8,10.7s-12.3,16.2-25.6,16.2-16.7-3.9-16.7-9.9,2.8-6.4,5.4-7.6c.4-.3.6-.5.6-.7s-.1-.4-.5-.6c-1.3-.7-3.8-2.9-3.8-6.7s2.4-6.5,6.3-8.2c.3-.2.6-.4.6-.7s-.2-.4-.5-.7c-2.8-2.2-5.1-5.9-5.1-10.8,0-9.5,7.6-14.5,16.7-14.5s10.8,1.6,13.9,1.6ZM397.5,158.2c-2.8,0-6.6.4-8.3,1-2.8.8-4.7,2.4-4.7,4.5,0,3.2,3.5,4.5,8.1,4.5s11.1-2.6,11.1-5.8-2.2-4.2-6.2-4.2ZM395.8,136c3.3,0,6-2.2,6-6.9s-1.6-9-6.5-9-5.7,3-5.7,7.6,3,8.3,6.2,8.3Z"/>
    <path class="st1" d="M443.5,131.2c.5-.4,1-1.2,1-3.9,0-4.5-2-7.9-6.2-7.9s-5.5,2.8-6.5,6.8c-.6,2.2-1.5,3.8-4.2,3.8s-5.4-2-5.4-5.9,5.9-10.1,16.3-10.1,18,5,18,16.3-.4,10.2-.4,14.4.5,3.4,2.4,3.4,1.3-.3,1.9-.3.8.6.8,1.5c0,4.3-3.8,7.5-8.5,7.5s-6.1-1.4-7.4-4c-.2-.4-.4-.7-.7-.7s-.7.4-1,.8c-2.6,2.4-6.8,4.3-11.1,4.3-6.9,0-12.2-3.5-12.2-10.2s4.5-10.4,11.6-12.8c5.1-1.6,10.6-2,11.8-2.8ZM443.8,137.3c-2.4,0-4.5.3-6.4,1-3.5,1.2-5.4,3.7-5.4,6.4s2,4.6,4.9,4.6c4.8,0,7.6-3.7,7.6-8.7s-.3-3.3-.7-3.3Z"/>
    <path class="st1" d="M482.4,128.8c1.3-1.5,1.9-2.6,1.9-3s-.4-.9-5.9-.9-7.2.6-9.2,1.5c-1.6.7-2.4,1.3-3.5,1.3s-1.6-1.2-1.6-2,.6-2.9,1.3-5.7c.7-2.7.8-5.8,3.4-5.8s3.7.8,15.5.8,8.8-.4,11.4-.4,2.2.4,2.2,2.1-.4,2-1.6,3.4l-17.1,21.9c-1,1.2-1.9,2.5-1.9,3s.5.7,4.6.7,8.5-1.1,11-2.4c2-1.1,2.8-1.9,4-1.9s1.5,1.1,1.5,2.2c0,2.2-1.1,5.3-1.7,10-.2,1.7-.9,3.2-3.1,3.2-3.3,0-3.9-.7-18.4-.7s-6.6.2-9.7.2-2.2-.2-2.2-1.8.4-1.9,1.5-3.3l17.9-22.4Z"/>
    <path class="st1" d="M517.7,131.9v13c0,3.2.7,4.4,1.9,5.7,1.2,1.2,2.6,1.5,2.6,3.3s-.8,2.4-3.1,2.4-4.7-.2-7-.2-4.5.2-7.9.2-2.6-1-2.6-2.2c0-1.7,1.5-2.6,2.3-3.4,2-2.1,2.3-4.2,2.3-6.3v-16.4c0-2.6-1.2-4-2.6-4.7-.9-.6-1.8-1.2-1.8-2.4,0-2.2,2.6-2.4,5.7-3.7,4-1.6,6.8-3.2,8.2-3.2s2.6.8,2.6,2.7-.4,6.7-.4,15.2ZM513.4,96.7c3.2,0,5.8,2.1,5.8,5.4s-4.9,8.2-9.7,8.2-5.1-2-5.1-4.7c0-4.5,4.3-9,9-9Z"/>
    <path class="st1" d="M567.8,146.1c0,1.8.7,3.7,2,4.7,1.5,1.1,2.8,1.4,2.8,3.2s-1,2.4-3.4,2.4-4-.2-6.3-.2-3.9.2-6.4.2-2.4-1-2.4-2.2.7-3.1,1-4c.8-2.3,1.7-9.8,1.7-17s-2.6-10.8-7.2-10.8-7.6,3.2-7.6,7.6v15.1c0,3.2.4,4.4,1.6,5.7,1.2,1.2,2.6,1.5,2.6,3.3s-.8,2.4-3.2,2.4-4.5-.2-6.7-.2-5,.2-7.9.2-2.6-1-2.6-2.2c0-1.7,1.5-2.6,2.3-3.4,2-2.1,2.2-4.2,2.2-6.3v-17.6c0-2.4-1.5-3.3-2.7-3.9-.9-.5-1.6-1.1-1.6-2.2,0-2.1,2.5-2.4,5.6-3.8,4-1.8,5.1-2.7,6.5-2.7s2.4.7,2.9,2.7c.3,1.6.6,3.3,1.3,3.3s5.8-6.2,13.5-6.2,13.2,5.7,13.2,15.4-1.1,13.7-1.1,16.6Z"/>
    <path class="st1" d="M590.7,138.1c-.8,0-1.1.2-1.1.8,0,3,2.9,8.6,10.4,8.6s9.2-2.8,11.3-5.5c.5-.5,1.1-.9,1.6-.9.7,0,1.2.7,1.2,2.3,0,5.3-6.3,13.6-17.8,13.6s-20.2-8.5-20.2-20.5,8.5-22.4,21.3-22.4,16,8.2,16,14.7-1.4,4.3-3.5,5.4c-4.7,2.6-14.3,3.7-19.3,3.9ZM596.3,120.3c-4.8,0-8.2,4.9-8.2,10s.5,2.4,1.6,2.4c2.6,0,9.1-1.1,11.7-3.3.7-.7,1.1-1.4,1.1-2.4,0-3.8-2.6-6.6-6.1-6.6Z"/>
  </g>
  <polygon class="st0" points="104 103.5 211 22.9 245 58.1 287.2 32.9 381.8 103.5 285.3 50.3 242.9 83.7 209.5 45.1 104 103.5"/>
</svg>